<?xml version="1.0" encoding="UTF-8"?>
<svg id="Layer_1" data-name="Layer 1" xmlns="http://www.w3.org/2000/svg" viewBox="0 0 242 242">
  <defs>
    <style>
      .cls-1 {
        fill: #231f20;
      }

      .cls-2 {
        fill: none;
        stroke: #e6e7e8;
        stroke-miterlimit: 10;
        stroke-width: .5px;
      }

      .cls-3 {
        fill: #e6e7e8;
      }
    </style>
  </defs>
  <polygon class="cls-3" points="48.28 136.44 90.25 190.13 178.62 60.58 83.51 150.43 48.28 136.44"/>
  <g>
    <path class="cls-1" d="M61.82,42.25c-.49,1.08-1.04,1.78-1.94,2.53-2.05,1.7-4.03,2.11-5.9,1.47-1.07-.36-2.04-1.07-2.81-1.99-.55-.66-1.17-1.66-1.4-2.88-.44-2.44,1.02-4.24,2.23-5.24,1.62-1.35,3.43-1.79,3.57-1.88,0,0,.75,1.22.73,1.19-.49-.03-.99.05-1.38.16-.84.23-1.58.72-2.08,1.14-1.99,1.65-2.58,4.13-.56,6.57,2.85,3.44,6.32,1.23,7.09.59.86-.71,1.76-2.29,1.57-2.73l.88,1.07Z"/>
    <path class="cls-1" d="M71.42,36.52c0-.2-.5-1.17-.62-1.37l-3.77-6.87c-.11-.21-.8-1.45-.99-1.56l4.93-2.71.53.96c-.22.02-.97.36-1.72.77l-1.98,1.09,1.91,3.48,2.31-1.27c.25-.14,1-.59,1.15-.75l.57,1.04c-.14-.02-.81.31-1.15.5l-2.41,1.32,2.1,3.82,2.78-1.53c.31-.17,1.05-.58,1.21-.74l.49.89-5.33,2.92Z"/>
    <path class="cls-1" d="M93.75,26.89c-2.76-1.84-3.3-2.25-4.02-2.81-.36-.27-.53-.27-1.03-.1-.11.04-1.57.5-1.72.55l.98,2.96s.37,1.1.49,1.15l-1.5.5c.05-.16-.3-1.23-.3-1.23l-2.62-7.9c-.28-.83-.46-1.38-.6-1.49.32-.11.57-.17.89-.28.66-.22,1.29-.5,1.9-.7,1.62-.54,3.16-.55,4.21.75.27.34.5.74.64,1.19.33.99.42,2.49-.85,3.55.42.02,2.39,1.52,4.3,2.73.61.39.67.4,1.02.52l-1.79.59ZM86.67,23.59c.23-.06.67-.19,1.45-.45.03-.01.26-.09.44-.16.68-.3,1.76-1.19,1.18-2.92-.24-.72-.64-1.23-1.11-1.48-.67-.37-1.55-.27-2.43.02-.27.09-.7.25-1.06.4l1.52,4.58Z"/>
    <path class="cls-1" d="M106.74,24.12c.08-.18-.09-1.35-.16-1.87l-1.15-8.26-1.99.28c-.37.05-1.4.21-1.59.32l-.15-1.05,8.56-1.19.14,1.04c-.18-.04-1.23.09-1.7.15l-1.92.27,1.15,8.26s.22,1.69.38,1.84l-1.57.22Z"/>
    <path class="cls-1" d="M122.35,23.08c.12-.15.16-1.89.16-1.89l.16-7.22c0-.39.04-1.87-.07-2.06l1.6.04c-.12.12-.17,2.07-.17,2.07l-.16,7.2s-.04,1.65.06,1.89l-1.58-.04Z"/>
    <path class="cls-1" d="M135.72,24.17c.13-.06.45-1.87.45-1.87l1.26-7.09c.13-.75.35-1.98.24-2.03l5.47.97-.19,1.05c-.15-.1-1.06-.31-1.89-.46l-2.09-.37-.69,3.89,2.49.44c.27.05,1.18.21,1.43.17l-.2,1.15c-.12-.12-1.06-.32-1.24-.36l-2.64-.47-.59,3.34s-.3,1.71-.24,1.93l-1.56-.28Z"/>
    <path class="cls-1" d="M151.9,28.1c.16-.11.72-1.75.72-1.75l2.34-6.83c.13-.37.61-1.77.56-1.99l1.52.52c-.15.07-.78,1.93-.78,1.93l-2.34,6.82s-.54,1.56-.52,1.82l-1.5-.51Z"/>
    <path class="cls-1" d="M164.3,33.16c.17-.1.7-1.07.81-1.27l3.65-6.93c.11-.21.77-1.46.75-1.68l4.97,2.62-.51.97c-.14-.17-.84-.61-1.59-1.01l-2-1.05-1.85,3.51,2.33,1.23c.25.13,1.05.51,1.26.55l-.55,1.05c-.07-.13-.71-.51-1.05-.69l-2.43-1.28-2.03,3.85,2.81,1.48c.31.17,1.06.56,1.29.6l-.47.9-5.38-2.83Z"/>
    <path class="cls-1" d="M184.88,34.84c.44-.54,1.18-1.46,1.13-1.58,0,0,1.29,1,2.51,1.99.87.7,1.84,1.51,2.46,2.54,1.22,2.01.88,4.36-.61,6.2-.66.81-1.67,1.69-3.04,2.01-2.61.62-5.07-1.17-5.71-1.69-.3-.25-.86-.74-1.41-1.21-.21-.17-1.25-1.14-1.25-1.14.19-.04.87-.88,1-1.06l4.9-6.06ZM180.76,42.14c.46.46.89.85,1.34,1.21,1.98,1.6,4.42,2.29,6.46.49.22-.19.33-.3.56-.59.85-1.05,1.63-2.37,1.24-4.01-.28-1.21-1.09-2.14-2.13-2.98-.56-.46-1.21-.89-1.75-1.22l-5.73,7.09Z"/>
  </g>
  <g>
    <path class="cls-1" d="M19.92,76.26c.11.16,1.19.64,1.67.85l7.62,3.38.81-1.84c.15-.34.56-1.3.57-1.52l.97.43-3.51,7.9-.96-.42c.13-.13.58-1.09.77-1.52l.79-1.77-7.62-3.38s-1.55-.71-1.76-.65l.64-1.45Z"/>
    <path class="cls-1" d="M12.29,99.6c3.02-1.37,3.65-1.62,4.51-1.94.42-.16.51-.31.63-.82.03-.12.4-1.6.44-1.75l-3.04-.73s-1.13-.27-1.24-.19l.37-1.54c.11.13,1.21.39,1.21.39l8.09,1.94c.85.21,1.41.34,1.58.28-.08.33-.16.57-.23.9-.16.67-.26,1.36-.41,1.98-.4,1.66-1.2,2.97-2.87,3.18-.43.05-.89.03-1.35-.08-1.02-.25-2.34-.96-2.57-2.6-.24.34-2.55,1.23-4.59,2.21-.65.31-.69.35-.98.6l.44-1.84ZM18.84,95.32c-.07.23-.19.67-.39,1.47,0,.03-.06.26-.09.46-.11.74.08,2.12,1.85,2.55.74.18,1.38.11,1.84-.17.66-.38,1.04-1.17,1.26-2.07.07-.28.16-.73.22-1.11l-4.69-1.13Z"/>
    <path class="cls-1" d="M18.42,121.21c1.57.06,2.55.09,2.82-.01l-.05,1.3c-.28-.13-2.56-.21-2.85-.22l-2.67-.1c-.61-.02-1.06-.02-1.59-.04-4.06-.15-4.24-2.81-4.17-4.66.06-1.57.37-4.46,4.38-4.31.5.02,1.01.05,1.7.08l2.66.1c1.27.05,2.73.1,2.85-.01l-.06,1.6c-.15-.12-2.59-.21-2.84-.22l-4.27-.16c-2.14-.08-3.42.63-3.51,3.11-.05,1.38.22,3.28,2.91,3.38l4.65.17Z"/>
    <path class="cls-1" d="M11,135.57c.18.07,1.27-.08,1.5-.11l7.74-1.21c.23-.04,1.63-.25,1.8-.4l.86,5.55-1.08.17c.05-.21,0-1.04-.14-1.88l-.35-2.23-3.92.61.41,2.6c.04.28.21,1.15.31,1.34l-1.17.18c.07-.13-.02-.87-.08-1.25l-.42-2.72-4.3.67.49,3.14c.05.35.18,1.18.29,1.39l-1,.16-.93-6Z"/>
    <path class="cls-1" d="M27.96,163.33c.99-1.18,1.53-1.92,1.56-2.15l.83,1.64c-.28,0-1.4,1.42-1.83,1.92l-4.27,4.98,5.61-.38s3.48-.26,3.56-.43l.69,1.37c-.37-.17-2.51-.06-3.76.02l-8.82.64,6.44-7.62Z"/>
    <path class="cls-1" d="M34.5,181.42c2.82-2.2,6.22-1.69,8.14.75,1.95,2.46,1.72,5.88-1.03,8.06-2.65,2.09-6.17,1.77-8.06-.62-2.04-2.58-1.82-6,.95-8.19ZM40.53,189.22c2.12-1.67,3.15-4.18,1.29-6.53-1.95-2.46-4.62-1.49-6.23-.21-2.09,1.65-3.17,4.16-1.31,6.51,1.95,2.46,4.64,1.49,6.25.23Z"/>
    <path class="cls-1" d="M46.35,202.87c.18-.05.87-.83,1.61-1.69l4.22-4.92c.22-.26,1.36-1.59,1.46-1.86l1.2,1.04c-.26.18-1.29,1.32-1.53,1.6l-5.23,6.08,1.86,1.6c.51.44,1.52,1.31,1.69,1.34l-.67.78-4.62-3.97Z"/>
    <path class="cls-1" d="M71.79,210.63c.79-1.36,1.28-2.2,1.31-2.5l1.12.65c-.25.19-1.39,2.16-1.53,2.41l-1.34,2.31c-.31.52-.52.93-.78,1.38-2.04,3.52-4.47,2.42-6.07,1.49-1.36-.79-3.77-2.42-1.75-5.89.25-.44.52-.87.87-1.46l1.34-2.31c.64-1.09,1.37-2.36,1.33-2.53l1.39.8c-.18.07-1.41,2.19-1.53,2.41l-2.14,3.69c-1.08,1.85-1.05,3.32,1.1,4.56,1.2.7,3,1.35,4.36-.98l2.34-4.03Z"/>
    <path class="cls-1" d="M91.09,227.35c.06-.07.13-.24.21-.48.11-.35.25-.89.31-1.14l1.39-5.61-6.62,6.1s-1.85-8.83-1.85-8.83l-2.09,5.37c-.09.24-.27.73-.37,1.05-.1.32-.15.52-.16.6l-1.19-.38c.17-.09.6-1.14.79-1.63,0,0,3.55-9,3.53-8.99l2.22,10.49,7.93-7.28-2.35,9.45s-.35,1.54-.29,1.73l-1.46-.47Z"/>
    <path class="cls-1" d="M105.64,230.24c.12-.16.26-1.25.28-1.48l.86-7.79c.03-.24.18-1.65.08-1.84l5.59.62-.12,1.09c-.19-.11-1.01-.26-1.85-.36l-2.25-.25-.43,3.94,2.62.29c.29.03,1.16.09,1.37.05l-.13,1.17c-.11-.1-.84-.21-1.23-.25l-2.74-.3-.48,4.33,3.16.35c.35.04,1.19.13,1.42.09l-.11,1.01-6.04-.67Z"/>
    <path class="cls-1" d="M126.34,231.04c.09-.17.02-1.35-.01-1.88l-.5-8.32-2,.12c-.37.02-1.41.1-1.61.2l-.07-1.06,8.63-.52.06,1.04c-.17-.06-1.23,0-1.71.02l-1.94.12.5,8.32s.08,1.7.23,1.86l-1.58.09Z"/>
    <path class="cls-1" d="M150.55,227.1c-2.61-2.05-3.12-2.5-3.79-3.12-.33-.3-.51-.31-1.02-.18-.12.03-1.61.38-1.76.42l.75,3.03s.28,1.13.4,1.19l-1.54.38c.07-.16-.2-1.25-.2-1.25l-1.99-8.08c-.21-.85-.35-1.41-.48-1.53.33-.08.58-.13.91-.21.67-.17,1.33-.4,1.95-.55,1.66-.41,3.2-.3,4.14,1.08.24.36.43.78.55,1.24.25,1.02.22,2.52-1.13,3.48.41.06,2.26,1.7,4.08,3.07.58.43.63.45.98.59l-1.84.45ZM143.74,223.24c.23-.04.68-.13,1.48-.33.03,0,.26-.06.46-.13.71-.24,1.85-1.05,1.41-2.82-.18-.74-.54-1.28-.99-1.56-.64-.42-1.52-.39-2.42-.17-.28.07-.72.19-1.09.32l1.15,4.69Z"/>
    <path class="cls-1" d="M163.04,222.73c.05-.19-.62-1.79-.62-1.79l-2.79-6.66c-.15-.36-.72-1.73-.9-1.85l1.48-.62c-.06.16.69,1.96.69,1.96l2.79,6.64s.64,1.52.82,1.7l-1.46.61Z"/>
    <path class="cls-1" d="M183.74,211.09c-.62,1.01-1.26,1.63-2.25,2.25-2.26,1.42-4.27,1.57-6.04.69-1.01-.5-1.89-1.32-2.53-2.34-.46-.73-.95-1.79-1.01-3.03-.12-2.48,1.56-4.07,2.89-4.91,1.79-1.12,3.63-1.33,3.78-1.4,0,0,.58,1.31.57,1.28-.48-.1-.99-.08-1.39-.02-.86.12-1.66.5-2.21.85-2.19,1.38-3.1,3.76-1.41,6.45,2.38,3.79,6.11,2.04,6.95,1.51.94-.59,2.04-2.04,1.92-2.5l.74,1.17Z"/>
    <path class="cls-1" d="M197.13,187.07c-.2-.16-1.21-1-1.34-.95.87-1.05,1.32-1.67,2.19-2.72.83-1,2.31-1.92,3.99-.53.99.82,1.34,1.9.86,3.06,1-.97,2.4-.78,3.38.04.42.34,1.11,1.07,1.24,2.05.2,1.33-.62,2.34-1.46,3.35-.51.61-1.07,1.29-1.58,1.89-.04-.19-.69-.73-1.07-1.04l-6.21-5.15ZM200.51,188.07c.26-.29.47-.49.74-.81.61-.74,1.43-2.02-.04-3.23-.99-.82-1.96-.73-2.92.43-.15.18-.48.61-.78,1.13l3,2.49ZM204.5,191.38c.45-.41.66-.61.98-1,.75-.91,1.44-2.05-.02-3.26-1.01-.84-2.12-.77-3.11.42-.4.48-.74.9-.99,1.24l3.13,2.59Z"/>
    <path class="cls-1" d="M212.56,166.39c-1.38-.76-2.23-1.23-2.53-1.25l.63-1.14c.19.24,2.19,1.34,2.44,1.48l2.34,1.28c.53.29.94.5,1.4.75,3.57,1.96,2.53,4.41,1.63,6.04-.76,1.38-2.33,3.82-5.85,1.89-.44-.24-.88-.5-1.49-.84l-2.34-1.28c-1.11-.61-2.4-1.32-2.56-1.27l.77-1.41c.08.18,2.22,1.35,2.44,1.48l3.74,2.06c1.88,1.03,3.34.97,4.53-1.21.67-1.21,1.28-3.03-1.09-4.33l-4.08-2.24Z"/>
    <path class="cls-1" d="M225.58,157.02c-.11-.16-1.75-.73-1.75-.73l-6.82-2.36c-.37-.13-1.77-.61-1.98-.56l.52-1.51c.07.15,1.92.79,1.92.79l6.81,2.36s1.56.54,1.82.52l-.52,1.5Z"/>
    <path class="cls-1" d="M229.62,142.65c-.13-.13-1.16-.33-2.27-.54l-6.37-1.17c-.33-.06-2.06-.38-2.34-.33l.29-1.56c.28.14,1.79.45,2.15.52l7.88,1.45.44-2.41c.12-.66.36-1.97.31-2.14l1.01.19-1.1,5.99Z"/>
    <path class="cls-1" d="M222.66,124.24c-.69,0-1.87.02-1.94.14,0,0-.05-1.64-.06-3.21,0-1.11,0-2.38.39-3.52.77-2.22,2.81-3.45,5.17-3.47,1.05,0,2.37.22,3.49,1.07,2.14,1.62,2.32,4.66,2.33,5.49,0,.39-.02,1.13-.04,1.86,0,.27-.09,1.69-.09,1.69-.15-.12-1.23-.11-1.45-.11l-7.8.07ZM230.92,122.78c.06-.64.09-1.23.08-1.81-.02-2.55-1.04-4.87-3.73-5.31-.29-.05-.44-.06-.81-.06-1.35.01-2.87.24-3.89,1.59-.75.99-.96,2.2-.95,3.54,0,.72.08,1.5.17,2.13l9.12-.08Z"/>
    <path class="cls-1" d="M230.2,101.27c-.19-.06-1.26.14-1.5.19l-7.68,1.57c-.23.05-1.62.33-1.78.49l-1.13-5.51,1.08-.22c-.04.21.06,1.04.23,1.87l.45,2.22,3.89-.8-.53-2.58c-.06-.28-.27-1.13-.37-1.32l1.16-.24c-.06.13.06.87.13,1.25l.55,2.7,4.27-.87-.64-3.11c-.07-.35-.24-1.17-.35-1.38l.99-.2,1.22,5.96Z"/>
    <path class="cls-1" d="M222.62,76.34c-1.67,2.87-2.04,3.44-2.56,4.19-.25.37-.23.55-.04,1.04.04.11.6,1.54.66,1.68l2.9-1.16s1.08-.43,1.12-.56l.59,1.47c-.16-.04-1.21.38-1.21.38l-7.72,3.1c-.81.33-1.35.54-1.45.69-.13-.31-.2-.55-.33-.87-.26-.64-.58-1.26-.82-1.85-.63-1.58-.74-3.12.49-4.25.32-.29.71-.54,1.15-.72.97-.39,2.46-.57,3.6.63,0-.42,1.37-2.48,2.46-4.46.35-.63.36-.69.45-1.05l.7,1.75ZM219.76,83.61c-.07-.23-.23-.65-.53-1.42-.01-.03-.1-.25-.19-.43-.34-.66-1.29-1.68-2.99-1-.7.28-1.19.71-1.41,1.2-.32.69-.17,1.56.17,2.42.11.27.29.68.47,1.03l4.48-1.8Z"/>
  </g>
  <circle class="cls-2" cx="121" cy="121" r="120.75"/>
  <g>
    <path class="cls-1" d="M200.03,74.48l10.62-17.59h-22.9c-17.35-17.49-41.04-27.58-65.68-27.58s-48.22,9.97-65.59,27.58h-25.11l10.73,17.77-.18-.11c-8.25,14.02-12.62,30.08-12.62,46.44,0,50.56,41.13,91.69,91.69,91.69s91.69-41.13,91.69-91.69c0-16.39-4.38-32.48-12.66-46.52ZM122.07,30.31c24.25,0,47,9.44,64.13,26.58H57.94c17.13-17.14,39.87-26.58,64.13-26.58ZM208.88,57.89l-87.87,145.58L33.14,57.89h175.74ZM121,211.69c-50.01,0-90.69-40.69-90.69-90.69,0-16.04,4.24-31.78,12.26-45.56l78.44,129.96,78.43-129.94c8.01,13.77,12.25,29.5,12.25,45.53,0,50.01-40.68,90.69-90.69,90.69Z"/>
    <path class="cls-1" d="M136.63,171.37l42.83-70.96h-42.83v70.96ZM137.63,101.41h40.06l-40.06,66.37v-66.37Z"/>
    <path class="cls-1" d="M122.6,194.61l10.98-18.19v-76.01h-10.98v94.2ZM123.6,101.41h8.98v74.73l-8.98,14.88v-89.61Z"/>
    <path class="cls-1" d="M122.6,83.93h10.98v-10.5h-10.98v10.5ZM123.6,74.43h8.98v8.5h-8.98v-8.5Z"/>
    <path class="cls-1" d="M122.6,97.48h10.98v-10.5h-10.98v10.5ZM123.6,87.98h8.98v8.5h-8.98v-8.5Z"/>
    <path class="cls-1" d="M144.76,83.93h44.65l6.34-10.5h-50.99v10.5ZM145.76,74.43h48.22l-5.13,8.5h-43.09v-8.5Z"/>
    <path class="cls-1" d="M105.39,171.37v-70.96h-42.83l42.83,70.96ZM104.39,167.78l-40.06-66.37h40.06v66.37Z"/>
    <path class="cls-1" d="M97.35,73.43h-51.07l6.34,10.5h44.73v-10.5ZM96.35,82.93h-43.17l-5.13-8.5h48.29v8.5Z"/>
    <path class="cls-1" d="M97.35,86.98h-42.89l6.34,10.5h36.55v-10.5ZM96.35,96.48h-34.99l-5.13-8.5h40.12v8.5Z"/>
    <path class="cls-1" d="M100.39,97.48h5v-24.05h-5v24.05ZM101.39,74.43h3v22.05h-3v-22.05Z"/>
    <path class="cls-1" d="M108.44,176.42l11.11,18.41v-94.42h-11.11v76.01ZM109.44,101.41h9.11v89.83l-9.11-15.1v-74.73Z"/>
    <path class="cls-1" d="M203.19,61.1H38.84l5.67,9.39h153.01l5.67-9.39ZM196.95,69.5h-.05c-1.74-2.52-3.64-5.04-5.63-7.39h10.14l-4.46,7.39ZM195.65,69.5H46.35c1.76-2.55,3.67-5.03,5.69-7.39h137.92c2.02,2.36,3.93,4.84,5.69,7.39ZM40.61,62.1h10.11c-2.04,2.4-3.7,4.61-5.52,7.29l.16.11h-.28l-4.46-7.39Z"/>
    <path class="cls-1" d="M144.76,97.48h36.47l6.34-10.5h-42.81v10.5ZM145.76,87.98h40.04l-5.13,8.5h-34.91v-8.5Z"/>
    <path class="cls-1" d="M136.63,73.43v24.05h5.08v-24.05h-5.08ZM140.71,96.48h-3.08v-22.05h3.08v22.05Z"/>
    <path class="cls-1" d="M108.44,97.48h11.11v-10.5h-11.11v10.5ZM109.44,87.98h9.11v8.5h-9.11v-8.5Z"/>
    <path class="cls-1" d="M119.55,73.43h-11.11v10.5h11.11v-10.5ZM118.55,82.93h-9.11v-8.5h9.11v8.5Z"/>
  </g>
</svg>