<?xml version="1.0" encoding="UTF-8"?>
<svg id="Layer_1" data-name="Layer 1" xmlns="http://www.w3.org/2000/svg" viewBox="0 22 525 352">
  <defs>
    <style>
      .cls-1 {
        fill: #a7a9ac;
      }
    </style>
  </defs>
<!-- contract -->
  <symbol id="contract" viewBox="185 22 155 155">
    <g>
      <path class="cls-1" d="M261.63,165.8c-15.19,0-29.56-4.92-41.56-14.24l-2.57-2,63.7,13.45-3.17.79c-5.37,1.33-10.88,2.01-16.4,2.01ZM223.76,152.41c11.15,7.79,24.17,11.89,37.87,11.89,4.25,0,8.49-.41,12.67-1.22l-50.54-10.67Z"/>
      <path class="cls-1" d="M282.99,162.37l20.57-97.47-75.49-15.93-19.31,91.5-.99-1.3c-9.13-11.92-13.96-26.17-13.96-41.19,0-37.4,30.43-67.82,67.82-67.82s67.82,30.43,67.82,67.82c0,24.13-12.4,45.84-33.18,58.08l-1.47.86,18.12-85.7-1.04-.24-18.29,86.47-.33.16c-.16.08-.85.51-1.41.86-.92.58-1.5.94-1.74,1.05l-1.36.63,19.69-92.73-1.24-.33-19.67,92.75-.38.15c-.16.07-.81.54-1.23.85-.94.67-1.38.98-1.68,1.09l-1.26.44ZM226.91,47.18l78.43,16.55-20.23,95.84c.51-.37.86-.62,1.12-.78l19.84-93.56,4.14,1.12-19.32,90.96c.06-.04.11-.07.17-.1.53-.33.94-.59,1.21-.75l18.46-87.28,3.96.92-17.71,83.77c19.43-12.11,30.97-32.88,30.97-55.9,0-36.57-29.75-66.32-66.32-66.32s-66.32,29.75-66.32,66.32c0,14.14,4.37,27.58,12.66,38.96l18.94-89.75Z"/>
    </g>
    <path class="cls-1" d="M261.37,173.89c-41.56,0-75.37-33.81-75.37-75.37s33.81-75.37,75.37-75.37,75.37,33.81,75.37,75.37-33.81,75.37-75.37,75.37ZM261.37,24.73c-40.69,0-73.79,33.1-73.79,73.79s33.1,73.79,73.79,73.79,73.79-33.1,73.79-73.79-33.1-73.79-73.79-73.79Z"/>
    <g>
      <path class="cls-1" d="M237.52,69.12c-.51.13-1.49.17-2.67-.08-2.75-.59-4.44-2.76-3.76-5.95.65-3.05,3.16-4.67,6.17-4.03,1.21.26,1.92.68,2.22.93l-.52.96c-.43-.33-1.07-.65-1.88-.82-2.28-.49-4.11.65-4.66,3.21-.51,2.38.54,4.21,2.91,4.71.77.16,1.58.17,2.14.03l.05,1.05Z"/>
      <path class="cls-1" d="M248.11,66.52c-.71,3.35-3.13,4.69-5.62,4.17-2.57-.55-3.95-2.93-3.32-5.87.66-3.09,3.01-4.7,5.61-4.15,2.66.57,3.94,2.97,3.33,5.86ZM240.52,65.07c-.44,2.08.29,4.18,2.27,4.61,1.99.42,3.51-1.17,3.98-3.38.41-1.94-.17-4.17-2.26-4.62-2.08-.44-3.53,1.26-3.99,3.39Z"/>
      <path class="cls-1" d="M248.68,71.83l2.08-9.74,1.37.29,2.07,5.59c.48,1.29.82,2.44,1.07,3.54h.03c.16-1.33.38-2.53.71-4.04l.87-4.07,1.19.25-2.08,9.74-1.27-.27-2.04-5.6c-.45-1.23-.86-2.48-1.13-3.64h-.05c-.19,1.25-.41,2.43-.75,4.04l-.89,4.16-1.18-.25Z"/>
      <path class="cls-1" d="M261.88,65.59l-2.96-.63.23-1.07,7.21,1.54-.23,1.07-2.98-.63-1.85,8.67-1.27-.27,1.85-8.67Z"/>
      <path class="cls-1" d="M267.41,65.78c.66,0,1.59.13,2.46.31,1.34.29,2.16.72,2.65,1.39.4.54.53,1.26.37,2.01-.27,1.29-1.26,1.97-2.36,2.09v.04c.69.42.99,1.21,1,2.27.03,1.43.06,2.41.18,2.83l-1.3-.28c-.1-.31-.14-1.19-.15-2.46,0-1.41-.41-2.02-1.55-2.31l-1.18-.25-.9,4.22-1.26-.27,2.05-9.61ZM267.72,70.49l1.29.27c1.34.29,2.35-.27,2.59-1.38.27-1.26-.53-2-1.85-2.3-.61-.13-1.05-.16-1.27-.15l-.76,3.55Z"/>
      <path class="cls-1" d="M275.43,74.34l-1.66,2.85-1.3-.28,5.38-9.03,1.52.32,1.25,10.44-1.34-.29-.39-3.28-3.45-.74ZM278.83,74.03l-.36-3.01c-.08-.68-.1-1.29-.13-1.88h-.03c-.27.54-.55,1.1-.87,1.65l-1.55,2.61,2.93.62Z"/>
      <path class="cls-1" d="M288.7,80.03c-.51.13-1.49.17-2.67-.09-2.75-.58-4.44-2.76-3.76-5.95.65-3.05,3.15-4.67,6.17-4.03,1.21.26,1.92.68,2.22.93l-.52.96c-.43-.33-1.07-.65-1.88-.82-2.28-.49-4.11.65-4.66,3.21-.51,2.38.54,4.21,2.91,4.71.77.16,1.58.17,2.14.03l.05,1.05Z"/>
      <path class="cls-1" d="M294.31,72.5l-2.96-.63.23-1.07,7.21,1.54-.23,1.07-2.97-.63-1.85,8.67-1.27-.27,1.85-8.67Z"/>
    </g>
    <rect class="cls-1" x="260.97" y="46.99" width="1.5" height="68.5" transform="translate(127.69 320.27) rotate(-77.96)"/>
    <rect class="cls-1" x="259.82" y="52.37" width="1.5" height="68.5" transform="translate(121.52 323.41) rotate(-77.97)"/>
    <rect class="cls-1" x="258.68" y="57.75" width="1.5" height="68.5" transform="translate(115.36 326.54) rotate(-77.97)"/>
    <rect class="cls-1" x="257.53" y="63.13" width="1.5" height="68.5" transform="translate(109.19 329.68) rotate(-77.97)"/>
    <rect class="cls-1" x="256.38" y="68.51" width="1.5" height="68.5" transform="translate(103.02 332.81) rotate(-77.97)"/>
    <rect class="cls-1" x="255.24" y="73.89" width="1.5" height="68.5" transform="translate(96.85 335.95) rotate(-77.97)"/>
    <rect class="cls-1" x="254.09" y="79.27" width="1.5" height="68.5" transform="translate(90.68 339.09) rotate(-77.97)"/>
    <rect class="cls-1" x="252.94" y="84.65" width="1.5" height="68.5" transform="translate(84.51 342.22) rotate(-77.96)"/>
    <rect class="cls-1" x="251.8" y="90.02" width="1.5" height="68.5" transform="translate(78.34 345.36) rotate(-77.97)"/>
    <rect class="cls-1" x="250.24" y="96.39" width="1.5" height="68.5" transform="translate(70.89 348.87) rotate(-77.97)"/>
    <rect class="cls-1" x="249.09" y="101.77" width="1.5" height="68.5" transform="translate(64.72 352) rotate(-77.97)"/>
    <rect class="cls-1" x="247.94" y="107.15" width="1.5" height="68.5" transform="translate(58.55 355.14) rotate(-77.97)"/>
    <rect class="cls-1" x="246.8" y="112.53" width="1.5" height="68.5" transform="translate(52.38 358.27) rotate(-77.96)"/>
  </symbol>
  <!-- partner -->
  <symbol id="partner" viewBox="0 22 155 155">
    <g>
      <path class="cls-1" d="M139.59,77.84l-65-30.13L10.19,77.27l.58-1.67c9.5-27.19,35.23-45.45,64.03-45.45s54.88,18.5,64.22,46.03l.56,1.66ZM74.59,46.05l62.42,28.94c-9.6-26-34.37-43.34-62.21-43.34S22.55,48.76,12.8,74.42l61.79-28.37Z"/>
      <path class="cls-1" d="M74.8,165.8c-1.84,0-3.77-.09-5.88-.27l-.69-.06v-85.54l-9.43,4.33v79.65l-.94-.24c-4.99-1.28-9.89-3.17-14.54-5.62l-.4-.21v-66.28l-9.43,4.33v55.89l-1.22-.98c-16.08-12.96-25.3-32.21-25.3-52.83,0-2.88.2-5.88.6-8.92l.05-.41.38-.17,66.55-30.6.31.15,67.18,31.25.05.41c.35,2.88.52,5.6.52,8.29,0,20.61-9.22,39.86-25.3,52.83l-1.22.98v-55.42l-9.43-4.39v65.86l-.4.21c-4.65,2.44-9.55,4.33-14.54,5.62l-.94.24v-79.33l-9.43-4.39v85.28l-.69.06c-2.12.18-4.04.27-5.88.27ZM69.74,164.09c3.61.28,6.52.28,10.13,0v-86.25l12.43,5.79v78.34c4.41-1.21,8.74-2.9,12.88-5.03v-67.31l12.43,5.79v53.21c14.97-12.65,23.52-31.02,23.52-50.65,0-2.51-.15-5.03-.46-7.7l-66.11-30.76L9.02,89.66c-.36,2.83-.54,5.63-.54,8.32,0,19.63,8.55,38,23.52,50.65v-53.69l12.43-5.71v67.71c4.14,2.14,8.46,3.83,12.88,5.03v-78.67l11.05-5.08h1.38v85.87Z"/>
    </g>
    <path class="cls-1" d="M75.37,173.89C33.81,173.89,0,140.08,0,98.52S33.81,23.15,75.37,23.15s75.37,33.81,75.37,75.37-33.81,75.37-75.37,75.37ZM75.37,24.73C34.68,24.73,1.58,57.83,1.58,98.52s33.1,73.79,73.79,73.79,73.79-33.1,73.79-73.79S116.06,24.73,75.37,24.73Z"/>
  </symbol>
  <!-- snow-flake -->
  <symbol id="snowflake" viewBox="373 223 152 152">
    <path class="cls-1" d="M447.87,373.89c-41.56,0-75.37-33.81-75.37-75.37s33.81-75.37,75.37-75.37,75.37,33.81,75.37,75.37-33.81,75.37-75.37,75.37ZM447.87,224.73c-40.69,0-73.79,33.1-73.79,73.79s33.1,73.79,73.79,73.79,73.79-33.1,73.79-73.79-33.1-73.79-73.79-73.79Z"/>
    <path class="cls-1" d="M471.81,361.6v-3.46h-6.19v-3.62h3.82v-1.93h-3.82v-13.11l10.7,6.69-2.42,3.87,1.63,1.02,2.42-3.87,3.06,1.92-3.67,5.88,1.63,1.02,3.68-5.88,3.28,2.05-2.31,3.69-.15.09c-3.32,2.02-6.9,3.78-10.64,5.23l-1.02.4ZM467.12,356.65h6.19v2.75c1.63-.66,3.23-1.39,4.78-2.17l-2.82-1.76,3.67-5.88-.52-.33-2.42,3.87-4.18-2.61,2.42-3.87-7.13-4.46v8.91h3.82v4.93h-3.82v.62ZM483.13,352.21l-2.2,3.53c.55-.31,1.09-.62,1.62-.95l1.32-2.12-.74-.46Z"/>
    <path class="cls-1" d="M465.62,363.55v-3.48h10.29l-3.89,1.45c-1.7.64-3.54,1.23-5.45,1.76l-.95.26Z"/>
    <path class="cls-1" d="M448.3,365.8c-37.4,0-67.82-30.43-67.82-67.82,0-35.24,27.51-64.94,62.62-67.61l2.01-.15-.02.02h.1c1.15-.06,2.17-.08,3.11-.08,37.4,0,67.82,30.43,67.82,67.82,0,20.63-9.24,39.9-25.35,52.86l-3.46,2.78,5.21-8.34-1.63-1.02-3.94,6.3-3.28-2.05,2.89-4.62-1.63-1.02-2.89,4.62-3.07-1.92,1.63-2.61-1.63-1.02-1.63,2.61-10.82-6.76,10.11-5.85,2.24,3.88,1.67-.96-2.25-3.88,3.13-1.81,3.43,5.93,1.67-.96-3.43-5.93,3.35-1.94,4.42,7.64,1.67-.97-4.42-7.64,4.42-2.56-.96-1.67-4.42,2.56-3.76-6.5-1.67.96,3.76,6.5-3.35,1.94-2.77-4.79-1.67.96,2.77,4.79-3.13,1.81-1.58-2.73-1.67.96,1.58,2.73-10.05,5.82v-12.38h3.82v-1.93h-3.82v-3.62h6.19v-1.93h-6.19v-3.87h8.17v-1.93h-8.17v-4.34h-1.93v4.34h-8.17v1.93h8.17v3.87h-6.19v1.93h6.19v3.62h-3.82v1.93h3.82v12.32l-10.63-6.64,2.2-3.51-1.63-1.02-2.2,3.51-3.07-1.92,3.46-5.53-1.63-1.02-3.46,5.53-3.28-2.05,4.5-7.21-1.63-1.02-4.5,7.21-3.5-2.19-1.02,1.63,3.5,2.19-4.16,6.65,1.63,1.02,4.16-6.65,3.28,2.05-3.11,4.97,1.63,1.02,3.11-4.97,3.07,1.92-1.85,2.96,1.63,1.02,1.85-2.96,10.74,6.71-11.14,6.45-1.9-3.28-1.67.96,1.9,3.28-3.13,1.81-3.09-5.33-1.67.96,3.09,5.33-3.35,1.94-4.08-7.05-1.67.96,4.08,7.05-3.4,1.97.96,1.67,3.4-1.97,4.11,7.1,1.67-.96-4.11-7.1,3.35-1.94,3.12,5.38,1.67-.97-3.12-5.38,3.13-1.81,1.93,3.33,1.67-.96-1.93-3.33,11.08-6.41v13.18h-3.82v1.93h3.82v3.62h-6.19v1.93h6.19v3.87h-8.17v1.47l-.68.06c-2.22.21-4.42.32-6.54.32ZM441.12,232.06c-33.33,3.6-59.15,32.16-59.15,65.92,0,36.57,29.75,66.32,66.32,66.32,1.86,0,3.78-.08,5.72-.25v-1.6h8.17v-.87h-6.19v-4.93h6.19v-.62h-3.82v-4.93h3.82v-9.08l-7.53,4.36,1.93,3.33-4.26,2.47-1.93-3.33-.53.31,3.12,5.38-4.26,2.47-3.12-5.38-.75.44,4.11,7.1-4.26,2.47-4.11-7.1-3.4,1.97-2.47-4.26,3.4-1.97-4.08-7.05,4.26-2.47,4.08,7.05.76-.44-3.09-5.33,4.26-2.47,3.09,5.33.53-.31-1.9-3.28,4.26-2.47,1.9,3.28,7.68-4.45-7.36-4.6-1.85,2.96-4.18-2.61,1.85-2.96-.52-.33-3.11,4.97-4.18-2.61,3.11-4.97-.74-.46-4.16,6.65-4.18-2.61,4.16-6.65-3.5-2.19,2.61-4.18,3.5,2.19,4.5-7.21,4.18,2.61-4.5,7.21.74.46,3.46-5.53,4.18,2.61-3.46,5.53.52.33,2.2-3.51,4.18,2.61-2.2,3.51,7.06,4.41v-8.11h-3.82v-4.93h3.82v-.62h-6.19v-4.93h6.19v-.87h-8.17v-4.93h8.17v-4.34h4.93v4.34h8.17v4.93h-8.17v.87h6.19v4.93h-6.19v.62h3.82v4.93h-3.82v8.28l6.51-3.76-1.58-2.73,4.26-2.47,1.58,2.73.53-.31-2.77-4.79,4.26-2.47,2.77,4.79.75-.44-3.76-6.5,4.26-2.47,3.76,6.5,4.42-2.56,2.47,4.26-4.42,2.56,4.42,7.64-4.26,2.47-4.42-7.64-.75.44,3.43,5.93-4.26,2.47-3.43-5.93-.53.31,2.24,3.88-4.26,2.47-2.24-3.88-6.66,3.85,7.43,4.65,1.63-2.61,4.18,2.61-1.63,2.61.52.33,2.89-4.62,4.18,2.61-2.89,4.62.74.46,3.94-6.3,4.18,2.61-1.01,1.62c13.43-12.53,21.04-29.93,21.04-48.44,0-36.57-29.75-66.32-66.32-66.32-.77,0-1.59.02-2.51.05-1.94,6.86-1.64,13.5-1.5,15.41.01.09.02.21.03.33l.02.24v.04c.05,1.71-.36,3.4-1.19,4.88-2.51,4.5-8.22,6.11-12.72,3.59-4.5-2.52-6.11-8.22-3.59-12.72.94-1.68,2.35-3.01,4.09-3.85,3.68-1.8,7.37-4.88,10.19-7.57ZM444.48,230.85l-.8.8c-3,3.03-7.53,7.1-12.04,9.3-1.51.73-2.7,1.85-3.49,3.26-1.02,1.83-1.27,3.95-.7,5.96.57,2.02,1.89,3.69,3.72,4.71,3.78,2.11,8.57.76,10.68-3.02.71-1.28,1.05-2.73.98-4.2v-.17c-.01-.09-.02-.17-.03-.25-.15-2.04-.48-9.15,1.68-16.4Z"/>
    <path class="cls-1" d="M404.92,303.58c-2.26,0-4.5-.58-6.52-1.71h0c-3.12-1.75-5.38-4.61-6.35-8.05-.97-3.45-.55-7.06,1.2-10.19,1.35-2.41,3.38-4.31,5.87-5.52,10.83-5.3,21.97-18.37,22.08-18.5l3.21-3.79-1.94,4.57c-5.12,12.03-4.39,25.81-4.19,28.45.02.15.03.32.04.49l.03.3-.02.05c.09,2.47-.49,4.9-1.68,7.04-1.75,3.12-4.61,5.38-8.05,6.35-1.21.34-2.44.51-3.66.51ZM419.68,263.54c-4,4.26-11.9,12.01-19.83,15.88-2.29,1.11-4.1,2.81-5.29,4.94-1.55,2.77-1.93,5.99-1.07,9.05s2.87,5.6,5.64,7.15h0c5.73,3.2,12.99,1.15,16.2-4.58,1.08-1.94,1.6-4.14,1.49-6.38v-.15s0,0,0,0h0c-.01-.18-.02-.32-.04-.47-.19-2.45-.81-14.12,2.9-25.43Z"/>
    <polygon class="cls-1" points="431.5 318.28 430.3 318.98 428.52 315.89 427.69 316.37 429.07 318.77 427.88 319.46 426.49 317.06 425.75 317.49 426.66 319.06 425.46 319.75 424.55 318.18 421.17 320.14 424.85 322.44 425.51 321.39 426.68 322.12 426.02 323.18 426.75 323.63 427.91 321.76 429.09 322.5 427.92 324.36 428.73 324.87 430.32 322.33 431.49 323.06 429.91 325.6 431.29 326.47 430.56 327.64 429.17 326.78 427.27 329.83 426.09 329.09 428 326.04 427.19 325.54 425.7 327.91 424.53 327.18 426.02 324.8 425.29 324.35 424.32 325.91 423.14 325.18 424.12 323.62 420.52 321.37 420.52 325.81 422.06 325.81 422.06 327.19 420.52 327.19 420.52 328.05 423.02 328.05 423.02 329.43 420.52 329.43 420.52 330.39 423.82 330.39 423.82 331.77 420.52 331.77 420.52 333.2 419.14 333.2 419.14 331.77 415.84 331.77 415.84 330.39 419.14 330.39 419.14 329.43 416.64 329.43 416.64 328.05 419.14 328.05 419.14 327.19 417.6 327.19 417.6 325.81 419.14 325.81 419.14 321.32 415.38 323.49 416.16 324.84 414.96 325.53 414.18 324.18 413.45 324.61 414.7 326.79 413.51 327.48 412.25 325.31 411.42 325.78 413.08 328.65 411.88 329.34 410.22 326.48 408.85 327.27 408.16 326.07 409.53 325.28 407.88 322.44 409.08 321.74 410.73 324.59 411.56 324.11 410.31 321.96 411.51 321.26 412.75 323.42 413.49 322.99 412.73 321.66 413.92 320.97 414.69 322.3 418.49 320.1 414.83 317.81 414.09 319.01 412.91 318.28 413.66 317.08 412.94 316.63 411.68 318.64 410.51 317.9 411.76 315.9 410.95 315.39 409.28 318.07 408.1 317.34 409.78 314.66 408.37 313.77 409.1 312.6 410.51 313.48 412.33 310.57 413.5 311.31 411.69 314.22 412.5 314.72 413.89 312.49 415.06 313.23 413.67 315.46 414.39 315.91 415.28 314.49 416.45 315.22 415.57 316.64 419.14 318.87 419.14 314.75 417.6 314.75 417.6 313.37 419.14 313.37 419.14 312.51 416.64 312.51 416.64 311.13 419.14 311.13 419.14 310.17 415.84 310.17 415.84 308.79 419.14 308.79 419.14 307.04 420.52 307.04 420.52 308.79 423.82 308.79 423.82 310.17 420.52 310.17 420.52 311.13 423.02 311.13 423.02 312.51 420.52 312.51 420.52 313.37 422.06 313.37 422.06 314.75 420.52 314.75 420.52 318.92 423.86 316.99 423.22 315.88 424.42 315.19 425.06 316.29 425.8 315.87 424.68 313.94 425.88 313.24 426.99 315.17 427.82 314.69 426.3 312.07 427.5 311.38 429.02 314 430.8 312.97 431.5 314.17 429.71 315.2 431.5 318.28"/>
    <path class="cls-1" d="M444.42,303.57c-3.06,0-6.16-.76-9.01-2.35-4.32-2.41-7.43-6.37-8.78-11.12-1.34-4.76-.76-9.76,1.66-14.07,1.86-3.33,4.66-5.96,8.11-7.62l.1-.06c15.17-7.41,30.85-25.82,31.01-26.01l3.21-3.79-1.94,4.57c-7.22,16.95-6.19,36.34-5.91,40.08.02.23.04.46.06.69l.04.38-.02.06c.14,3.42-.66,6.8-2.33,9.77-3.39,6.06-9.7,9.47-16.19,9.47ZM465.9,246.38c-5.23,5.65-17.1,17.62-28.73,23.3l-.1.06c-3.17,1.53-5.75,3.95-7.46,7.01-2.22,3.97-2.76,8.56-1.52,12.93,1.24,4.37,4.1,8,8.07,10.22s8.56,2.76,12.93,1.52c4.37-1.24,8-4.1,10.22-8.07,1.55-2.77,2.29-5.92,2.13-9.12v-.17s0-.02,0-.02v-.06c-.02-.24-.04-.45-.06-.67v-.02c-.27-3.5-1.19-20.69,4.52-36.94Z"/>
    <polygon class="cls-1" points="500.37 287.21 498.7 288.18 496.77 284.84 495.74 285.44 497 287.62 495.33 288.59 494.07 286.4 489.35 289.14 494.48 292.35 495.4 290.88 497.04 291.9 496.12 293.37 497.13 294 498.75 291.4 500.39 292.42 498.76 295.02 499.9 295.73 502.11 292.18 503.75 293.21 501.53 296.75 503.46 297.96 502.44 299.59 500.51 298.39 497.85 302.64 496.21 301.62 498.87 297.37 497.74 296.66 495.67 299.97 494.04 298.95 496.11 295.64 495.1 295 493.74 297.18 492.1 296.16 493.46 293.98 488.44 290.84 488.44 297.04 490.59 297.04 490.59 298.97 488.44 298.97 488.44 300.16 491.93 300.16 491.93 302.09 488.44 302.09 488.44 303.43 493.04 303.43 493.04 305.36 488.44 305.36 488.44 307.35 486.51 307.35 486.51 305.36 481.91 305.36 481.91 303.43 486.51 303.43 486.51 302.09 483.02 302.09 483.02 300.16 486.51 300.16 486.51 298.97 484.36 298.97 484.36 297.04 486.51 297.04 486.51 290.78 481.27 293.81 482.36 295.68 480.69 296.65 479.6 294.77 478.57 295.37 480.32 298.4 478.66 299.37 476.9 296.34 475.75 297.01 478.06 301 476.39 301.97 474.08 297.97 472.16 299.08 471.2 297.41 473.11 296.3 470.81 292.33 472.48 291.37 474.78 295.34 475.93 294.67 474.2 291.66 475.87 290.7 477.6 293.7 478.64 293.1 477.57 291.26 479.24 290.29 480.3 292.14 485.6 289.07 480.51 285.89 479.47 287.55 477.83 286.53 478.87 284.86 477.86 284.23 476.11 287.03 474.48 286.01 476.23 283.21 475.09 282.5 472.75 286.25 471.12 285.23 473.46 281.48 471.49 280.25 472.51 278.61 474.48 279.85 477.02 275.79 478.65 276.81 476.12 280.87 477.25 281.58 479.19 278.46 480.83 279.49 478.88 282.6 479.89 283.23 481.13 281.25 482.77 282.27 481.53 284.25 486.51 287.36 486.51 281.61 484.36 281.61 484.36 279.68 486.51 279.68 486.51 278.49 483.02 278.49 483.02 276.56 486.51 276.56 486.51 275.23 481.91 275.23 481.91 273.3 486.51 273.3 486.51 270.85 488.44 270.85 488.44 273.3 493.04 273.3 493.04 275.23 488.44 275.23 488.44 276.56 491.93 276.56 491.93 278.49 488.44 278.49 488.44 279.68 490.59 279.68 490.59 281.61 488.44 281.61 488.44 287.43 493.1 284.73 492.21 283.2 493.88 282.23 494.77 283.77 495.8 283.17 494.24 280.48 495.91 279.51 497.47 282.2 498.63 281.54 496.51 277.88 498.18 276.91 500.3 280.57 502.79 279.13 503.75 280.8 501.26 282.24 503.75 286.54 502.08 287.51 499.59 283.21 498.44 283.87 500.37 287.21"/>
  </symbol>
  <!-- pencil -->
   <symbol id="pencil" viewBox="184 223 152 152">
    <path class="cls-1" d="M261.37,373.89c-41.56,0-75.37-33.81-75.37-75.37s33.81-75.37,75.37-75.37,75.37,33.81,75.37,75.37-33.81,75.37-75.37,75.37ZM261.37,224.73c-40.69,0-73.79,33.1-73.79,73.79s33.1,73.79,73.79,73.79,73.79-33.1,73.79-73.79-33.1-73.79-73.79-73.79Z"/>
    <g>
      <path class="cls-1" d="M312.8,286.85c-8.32,0-17.31-1.48-25.08-3.01l-1.02-.2,20.37-36.01.7.65c10.3,9.56,17.29,21.84,20.2,35.51l.13.63-.61.23c-4.28,1.6-9.34,2.21-14.69,2.21ZM289.02,282.57c12.16,2.35,27.04,4.43,37.33.89-2.86-12.8-9.38-24.33-18.92-33.43l-18.41,32.55Z"/>
      <path class="cls-1" d="M261.63,365.8c-37.4,0-67.82-30.43-67.82-67.82s30.43-67.82,67.82-67.82c9.07,0,17.88,1.77,26.2,5.25l.78.33-23.51,41.58-.84-.2c-6.19-1.49-12.02-2.89-16.28-3.19-16.88-1.18-30.32,5.48-34.23,16.98-4.77,14.04,5.6,31.2,27.76,45.89.56.37,1.36.2,1.73-.35.02-.03.04-.07.06-.11l.15-.58c0-.08,0-.17-.03-.26-.07-.33-.26-.61-.53-.79-21.15-14.02-31.16-30.1-26.78-43,3.53-10.4,15.97-16.4,31.68-15.29,3.75.26,8.81,1.43,15.04,2.93l.97.23-7.34,12.99c1.77.98,3.62,2.05,5.51,3.2l32.35-57.2.65.37c2.26,1.28,4.46,2.7,6.53,4.2l.54.39-32.35,57.2c1.84,1.25,3.59,2.49,5.23,3.71l10.46-18.5.53.11c11.13,2.24,19.68,3.29,26.89,3.29,5.77,0,10.78-.72,14.89-2.13l.85-.29.13.89c.51,3.36.76,6.79.76,10.19,0,37.4-30.43,67.82-67.82,67.82ZM261.63,231.65c-36.57,0-66.32,29.75-66.32,66.32s29.75,66.32,66.32,66.32,66.32-29.75,66.32-66.32c0-3.03-.21-6.08-.62-9.08-4.09,1.28-8.97,1.93-14.52,1.93-7.2,0-15.67-1.02-26.65-3.21l-10.77,19.04-.68-.51c-1.98-1.48-4.14-3.02-6.42-4.56l-.57-.39,32.37-57.24c-1.66-1.19-3.4-2.31-5.19-3.35l-32.37,57.24-.66-.41c-2.34-1.44-4.62-2.76-6.78-3.93l-.67-.36,7.11-12.58c-5.72-1.37-10.39-2.42-13.83-2.66-15.01-1.06-26.85,4.55-30.16,14.28-4.15,12.22,5.63,27.64,26.18,41.27.09.06.18.13.26.2l6.09-24.15,12.75,8.28-17.88,17.67c.07.62-.07,1.26-.44,1.82-.51.77-1.37,1.23-2.29,1.23-.54,0-1.07-.16-1.52-.46-22.76-15.09-33.36-32.89-28.35-47.62,4.14-12.17,18.17-19.24,35.75-17.99,4.33.3,10.12,1.69,16.26,3.16l22.12-39.12c-7.9-3.19-16.25-4.81-24.84-4.81ZM251.02,311.89l-5.18,20.55,14.61-14.43-9.43-6.12Z"/>
    </g>
  </symbol>
  <!-- manpower -->
   <symbol id="humanpower" viewBox="0 223 152 152">

  <path class="cls-1" d="M75.37,373.89c-41.56,0-75.37-33.81-75.37-75.37s33.81-75.37,75.37-75.37,75.37,33.81,75.37,75.37-33.81,75.37-75.37,75.37ZM75.37,224.73c-40.69,0-73.79,33.1-73.79,73.79s33.1,73.79,73.79,73.79,73.79-33.1,73.79-73.79-33.1-73.79-73.79-73.79Z"/>
  <path class="cls-1" d="M132.27,334.3l-.38-1.93c-.52-2.66-1.06-5.04-1.59-7.07-2.01-7.62-6.74-8.78-7.32-8.9h-6.32l-2.33-2.73c-2,2.06-5.45,3.32-9.18,3.32s-7.15-1.25-9.16-3.29l-2.3,2.7h-12.73l-.16-.7c-.03-.14-.07-.29-.1-.42-2.23-8.43-7.48-9.7-8.09-9.82h-10.2l-2.58-3.03c-2.18,2.28-5.96,3.67-10.08,3.67s-7.87-1.38-10.05-3.65l-2.56,3h-10.2c-.6.12-5.86,1.37-8.09,9.81h0c-.97,3.65-1.9,8.19-2.78,13.5l-.37,2.23-1.04-2.01c-4.99-9.68-7.53-20.13-7.53-31.04,0-37.4,30.43-67.82,67.82-67.82s67.82,30.43,67.82,67.82c0,12.21-3.29,24.18-9.52,34.64l-1,1.69ZM117.36,314.91h5.8c.25.05,6.22,1.07,8.59,10.01.41,1.55.82,3.29,1.22,5.21,5.45-9.81,8.32-20.89,8.32-32.16,0-36.57-29.75-66.32-66.32-66.32s-66.32,29.75-66.32,66.32c0,9.91,2.13,19.41,6.34,28.3.77-4.38,1.58-8.2,2.42-11.36,2.58-9.77,9.09-10.88,9.36-10.92h.11s9.57,0,9.57,0l3.04-3.56.67.37.21.18c1.79,2.26,5.39,3.66,9.38,3.66s7.55-1.38,9.35-3.61l.09-.12.87-.48,3.04,3.56h9.68c.22.04,4.27.73,7.25,5.75l1.3-.41c2.69-.85,4.35-7.84,4.76-10.47l.14-.92.87.33c.37.14,1.47.54,2.09.65l.72.12-.1.72s-.62,4.56,2.37,8.65l.22.31-.11.36c-.02.07-.54,1.63-2.42,2.5-2.11.97-5.01.68-8.61-.86l-.88-.38c.68,1.26,1.28,2.76,1.76,4.56h10.85l2.78-3.26.67.36.2.18c1.6,2.01,4.93,3.31,8.5,3.31s6.84-1.25,8.47-3.27l.09-.12.86-.47,2.78,3.26ZM83.25,309.89c2.5.87,4.54.99,5.97.35.86-.38,1.3-.95,1.5-1.3-2.42-3.54-2.52-7.2-2.44-8.7-.29-.08-.58-.17-.85-.26-.43,2.23-1.68,7.65-4.18,9.91ZM105.33,312.67c-7.58,0-13.75-6.22-13.75-13.86,0-.22,0-.45.02-.67-2.49-.81-4.24-3.16-4.24-5.8,0-1.26.39-2.48,1.13-3.51l.22-.32h33.75l.22.31c.74,1.04,1.13,2.25,1.13,3.51,0,2.86-2,5.3-4.74,5.94,0,.18.01.35.01.53,0,7.64-6.17,13.86-13.75,13.86ZM89.5,290.01c-.42.71-.64,1.5-.64,2.33,0,2.16,1.55,4.06,3.69,4.51l.65.14-.06.67c-.04.38-.06.77-.06,1.16,0,6.82,5.49,12.36,12.25,12.36s12.25-5.55,12.25-12.36c0-.37-.02-.73-.05-1.09l-.06-.73.72-.08c2.35-.27,4.12-2.24,4.12-4.58,0-.82-.22-1.62-.64-2.33h-32.17ZM123.16,312.15c-1.04,0-1.98-.19-2.79-.56-1.88-.86-2.4-2.43-2.42-2.5l-.11-.36.22-.31c2.99-4.09,2.37-8.61,2.37-8.65l-.1-.72.72-.13c.63-.11,1.73-.5,2.09-.65l.87-.33.14.92c.41,2.62,2.07,9.62,4.76,10.47l1.93.61-1.86.79c-2.21.94-4.16,1.42-5.82,1.42ZM119.53,308.94c.2.35.65.92,1.5,1.3,1.43.63,3.48.51,5.97-.35-2.5-2.26-3.76-7.67-4.18-9.91-.26.09-.56.18-.85.26.08,1.5-.03,5.16-2.45,8.7ZM49.94,301.57c-8.28,0-15.01-6.79-15.01-15.13,0-.26,0-.53.02-.79-2.74-.87-4.66-3.43-4.66-6.31,0-1.37.42-2.69,1.22-3.81l.22-.32h36.95l.22.32c.8,1.12,1.22,2.44,1.22,3.81,0,3.12-2.19,5.79-5.21,6.46,0,.21.01.42.01.64,0,8.34-6.73,15.13-15.01,15.13ZM32.53,276.71c-.48.8-.74,1.7-.74,2.63,0,2.4,1.73,4.51,4.11,5.02l.65.14-.06.67c-.04.42-.06.85-.06,1.28,0,7.52,6.06,13.63,13.51,13.63s13.51-6.12,13.51-13.63c0-.41-.02-.8-.06-1.2l-.06-.73.72-.08c2.62-.3,4.59-2.49,4.59-5.09,0-.93-.25-1.83-.74-2.63h-35.37ZM123.71,287.4h-37.96v-7.22h2.3c1.08-6.43,5.12-11.82,10.65-14.16l1.04-.44v8.05c0,1.43,1.22,2.59,2.71,2.59h4.56c1.5,0,2.71-1.16,2.71-2.59v-8.05l1.04.44c5.53,2.34,9.56,7.73,10.65,14.16h2.3v7.22ZM87.25,285.9h34.96v-4.22h-2.1l-.09-.65c-.78-5.77-4.12-10.71-8.8-13.14v5.74c0,2.26-1.89,4.09-4.21,4.09h-4.56c-2.32,0-4.21-1.84-4.21-4.09v-5.74c-4.69,2.44-8.02,7.37-8.8,13.14l-.09.65h-2.1v4.22ZM106,274.71h-2.55c-1.31,0-2.37-.93-2.37-2.08v-11.87c0-1.15,1.06-2.08,2.37-2.08h2.55c1.31,0,2.37.93,2.37,2.08v11.87c0,1.15-1.06,2.08-2.37,2.08ZM103.45,260.19c-.49,0-.87.31-.87.58v11.87c0,.27.38.58.87.58h2.55c.49,0,.87-.31.87-.58v-11.87c0-.27-.38-.58-.87-.58h-2.55ZM70.03,273.85H28.53v-7.77h2.51c1.17-7.06,5.59-12.98,11.65-15.54l1.04-.44v8.72c0,1.61,1.37,2.92,3.05,2.92h5c1.68,0,3.05-1.31,3.05-2.92v-8.72l1.04.44c6.06,2.57,10.48,8.48,11.65,15.54h2.51v7.77ZM30.03,272.35h38.5v-4.77h-2.31l-.09-.65c-.87-6.4-4.58-11.86-9.8-14.53v6.42c0,2.44-2.04,4.42-4.55,4.42h-5c-2.51,0-4.55-1.98-4.55-4.42v-6.42c-5.22,2.66-8.93,8.12-9.8,14.53l-.09.65h-2.31v4.77ZM50.78,260.03h-3c-1.4,0-2.53-.99-2.53-2.21v-13.12c0-1.22,1.14-2.21,2.53-2.21h3c1.4,0,2.53.99,2.53,2.21v13.12c0,1.22-1.14,2.21-2.53,2.21ZM47.78,244c-.59,0-1.03.37-1.03.71v13.12c0,.33.44.71,1.03.71h3c.59,0,1.03-.37,1.03-.71v-13.12c0-.33-.44-.71-1.03-.71h-3Z"/>
  </symbol>
 <!-- flow chart -->
  <symbol id="flowchart" viewBox="373 21 152 152">
  <path class="cls-1" d="M448.3,165.8c-34.5,0-63.46-25.82-67.37-60.06l-.1-.83h109.31v-7.17h-109.66v-.76c.05-2.81.27-5.62.65-8.37l.09-.65h86.92v-7.17h-85.46l.26-.95c8.1-29.26,34.97-49.69,65.35-49.69,37.4,0,67.82,30.43,67.82,67.82,0,5.71-.71,11.39-2.12,16.88l-.14.56h-104.21v7.17h101.87l-.42,1.03c-1.33,3.24-2.89,6.37-4.66,9.31l-.22.36h-85.23v7.17h80.2l-1.04,1.23c-12.93,15.32-31.83,24.11-51.84,24.11ZM382.52,106.41c4.19,33.07,32.32,57.89,65.78,57.89,19.02,0,37.02-8.12,49.62-22.34h-78.45v-10.17h5.62v-7.7h-16.96v-10.17h16.96v-7.52h-42.58ZM466.06,131.79h39.3c1.45-2.45,2.76-5.03,3.91-7.7h-43.21v7.7ZM430.6,131.79h29.96v-7.7h-29.96v7.7ZM462.06,130.42h2.5v-4.83h-2.5v4.83ZM426.6,130.42h2.5v-4.83h-2.5v4.83ZM466.06,113.92h46.63c1.28-5.19,1.93-10.55,1.93-15.95,0-36.57-29.75-66.32-66.32-66.32-29.38,0-55.4,19.54-63.64,47.64h40.44v-7.55h5.5v7.55h29.96v-7.55h5.5v7.55h3.58v10.17h-3.58v6.78h25.58v10.17h-25.58v7.52ZM430.6,113.92h29.96v-7.52h-29.96v7.52ZM462.06,112.57h2.5v-4.83h-2.5v4.83ZM426.6,112.57h2.5v-4.83h-2.5v4.83ZM430.6,96.24h29.96v-6.78h-29.96v6.78ZM382.02,96.24h43.08v-6.78h-42.57c-.29,2.23-.46,4.51-.52,6.78ZM462.06,95.49h2.5v-4.83h-2.5v4.83ZM426.6,95.49h2.5v-4.83h-2.5v4.83ZM462.06,78.07h2.5v-4.83h-2.5v4.83ZM426.6,78.07h2.5v-4.83h-2.5v4.83ZM466.06,149.89h-5.5v-7.83h5.5v7.83ZM462.06,148.39h2.5v-4.83h-2.5v4.83ZM430.6,149.89h-5.5v-7.83h5.5v7.83ZM426.6,148.39h2.5v-4.83h-2.5v4.83Z"/>
  <g>
    <path class="cls-1" d="M407.18,54.38h5.36v1.08h-4.08v3.31h3.77v1.06h-3.77v4.5h-1.28v-9.96Z"/>
    <path class="cls-1" d="M414.37,54.38h1.29v8.88h4.25v1.08h-5.54v-9.96Z"/>
    <path class="cls-1" d="M429.28,59.25c0,3.43-2.08,5.24-4.62,5.24s-4.47-2.04-4.47-5.05c0-3.16,1.96-5.23,4.62-5.23s4.47,2.08,4.47,5.04ZM421.55,59.41c0,2.13,1.15,4.03,3.18,4.03s3.19-1.88,3.19-4.14c0-1.98-1.03-4.05-3.18-4.05s-3.19,1.96-3.19,4.15Z"/>
    <path class="cls-1" d="M432.57,64.33l-2.53-9.96h1.36l1.18,5.04c.3,1.24.56,2.48.74,3.44h.03c.16-.99.47-2.17.81-3.46l1.33-5.02h1.34l1.21,5.05c.28,1.18.55,2.36.69,3.41h.03c.21-1.09.49-2.2.8-3.44l1.31-5.02h1.31l-2.82,9.96h-1.34l-1.25-5.18c-.31-1.27-.52-2.25-.65-3.25h-.03c-.18.99-.4,1.96-.77,3.25l-1.42,5.18h-1.34Z"/>
    <path class="cls-1" d="M453.53,64.01c-.47.24-1.42.47-2.63.47-2.81,0-4.92-1.77-4.92-5.04s2.11-5.23,5.2-5.23c1.24,0,2.02.27,2.36.44l-.31,1.05c-.49-.24-1.18-.41-2.01-.41-2.33,0-3.88,1.49-3.88,4.11,0,2.44,1.4,4,3.83,4,.78,0,1.58-.16,2.1-.41l.27,1.02Z"/>
    <path class="cls-1" d="M456.42,54.38v4.17h4.82v-4.17h1.3v9.96h-1.3v-4.67h-4.82v4.67h-1.28v-9.96h1.28Z"/>
    <path class="cls-1" d="M466.38,61.2l-1.03,3.13h-1.33l3.38-9.96h1.55l3.4,9.96h-1.37l-1.06-3.13h-3.53ZM469.64,60.19l-.97-2.87c-.22-.65-.37-1.24-.52-1.82h-.03c-.15.59-.31,1.2-.5,1.8l-.98,2.88h3Z"/>
    <path class="cls-1" d="M473.81,54.51c.65-.13,1.58-.21,2.47-.21,1.37,0,2.26.25,2.88.81.5.44.78,1.12.78,1.89,0,1.31-.83,2.19-1.88,2.54v.04c.77.27,1.23.97,1.46,2.01.33,1.39.56,2.35.77,2.73h-1.33c-.16-.28-.38-1.14-.67-2.38-.29-1.37-.83-1.89-1.99-1.94h-1.21v4.31h-1.29v-9.82ZM475.09,59.04h1.31c1.37,0,2.25-.75,2.25-1.89,0-1.28-.93-1.85-2.29-1.86-.62,0-1.06.06-1.27.12v3.63Z"/>
    <path class="cls-1" d="M483.78,55.47h-3.03v-1.09h7.37v1.09h-3.04v8.86h-1.3v-8.86Z"/>
  </g>
  <path class="cls-1" d="M447.87,173.89c-41.56,0-75.37-33.81-75.37-75.37s33.81-75.37,75.37-75.37,75.37,33.81,75.37,75.37-33.81,75.37-75.37,75.37ZM447.87,24.73c-40.69,0-73.79,33.1-73.79,73.79s33.1,73.79,73.79,73.79,73.79-33.1,73.79-73.79-33.1-73.79-73.79-73.79Z"/>
</symbol>
</svg>